# xmcd CD database file
#
# Track frame offsets:
#	150
#	3610
#	16747
#	38387
#	59695
#
# Disc length: 982 seconds
#
# Revision: 0
# Processed by: cddbd v1.5.1PL2 Copyright (c) Steve Scherf et al.
# Submitted via: CDex 1.51
#
DISCID=3103d405
DTITLE=Verve - Now
DYEAR=2001
DGENRE=Jazz
TTITLE0=Intro
TTITLE1=Suite for the Americas - Part 1
TTITLE2=Panafrica
TTITLE3=Shame On You
TTITLE4=Me Oh My
EXTD=YEAR: 2001
EXTT0=
EXTT1=
EXTT2=
EXTT3=
EXTT4=
PLAYORDER=
